<svg width="847" height="132" viewBox="0 0 847 132" fill="none" xmlns="http://www.w3.org/2000/svg">
<path d="M41.9989 25.732C41.9989 24.9622 42.8322 24.4811 43.4989 24.866L112.499 64.7032C113.166 65.0881 113.166 66.0503 112.499 66.4352L43.4989 106.272C42.8322 106.657 41.9989 106.176 41.9989 105.406L41.9989 25.732Z" fill="#EB4760"/>
<path d="M72.5692 25.732C72.5692 24.9622 73.4026 24.4811 74.0692 24.866L143.069 64.7032C143.736 65.0881 143.736 66.0503 143.069 66.4352L74.0692 106.272C73.4026 106.657 72.5692 106.176 72.5692 105.406L72.5692 25.732Z" fill="#53165C"/>
<path d="M103.14 25.732C103.14 24.9622 103.973 24.4811 104.64 24.866L173.64 64.7032C174.306 65.0881 174.306 66.0503 173.64 66.4352L104.64 106.272C103.973 106.657 103.14 106.176 103.14 105.406L103.14 25.732Z" fill="#E9455E"/>
<path d="M206.969 87H199.094V41.5H206.969V87ZM223 53.1875L223.219 57.0938C225.719 54.0729 229 52.5625 233.062 52.5625C240.104 52.5625 243.688 56.5938 243.812 64.6562V87H236.219V65.0938C236.219 62.9479 235.75 61.3646 234.812 60.3438C233.896 59.3021 232.385 58.7812 230.281 58.7812C227.219 58.7812 224.938 60.1667 223.438 62.9375V87H215.844V53.1875H223ZM258.625 53.1875L258.844 57.0938C261.344 54.0729 264.625 52.5625 268.688 52.5625C275.729 52.5625 279.312 56.5938 279.438 64.6562V87H271.844V65.0938C271.844 62.9479 271.375 61.3646 270.438 60.3438C269.521 59.3021 268.01 58.7812 265.906 58.7812C262.844 58.7812 260.562 60.1667 259.062 62.9375V87H251.469V53.1875H258.625ZM285.781 69.7812C285.781 66.4688 286.438 63.4896 287.75 60.8438C289.062 58.1771 290.906 56.1354 293.281 54.7188C295.656 53.2812 298.385 52.5625 301.469 52.5625C306.031 52.5625 309.729 54.0312 312.562 56.9688C315.417 59.9062 316.958 63.8021 317.188 68.6562L317.219 70.4375C317.219 73.7708 316.573 76.75 315.281 79.375C314.01 82 312.177 84.0312 309.781 85.4688C307.406 86.9062 304.656 87.625 301.531 87.625C296.76 87.625 292.938 86.0417 290.062 82.875C287.208 79.6875 285.781 75.4479 285.781 70.1562V69.7812ZM293.375 70.4375C293.375 73.9167 294.094 76.6458 295.531 78.625C296.969 80.5833 298.969 81.5625 301.531 81.5625C304.094 81.5625 306.083 80.5625 307.5 78.5625C308.938 76.5625 309.656 73.6354 309.656 69.7812C309.656 66.3646 308.917 63.6562 307.438 61.6562C305.979 59.6562 303.99 58.6562 301.469 58.6562C298.99 58.6562 297.021 59.6458 295.562 61.625C294.104 63.5833 293.375 66.5208 293.375 70.4375ZM335.062 77.375L342.219 53.1875H350.062L338.344 87H331.75L319.938 53.1875H327.812L335.062 77.375ZM374.531 87C374.198 86.3542 373.906 85.3021 373.656 83.8438C371.24 86.3646 368.281 87.625 364.781 87.625C361.385 87.625 358.615 86.6562 356.469 84.7188C354.323 82.7812 353.25 80.3854 353.25 77.5312C353.25 73.9271 354.583 71.1667 357.25 69.25C359.938 67.3125 363.771 66.3438 368.75 66.3438H373.406V64.125C373.406 62.375 372.917 60.9792 371.938 59.9375C370.958 58.875 369.469 58.3438 367.469 58.3438C365.74 58.3438 364.323 58.7812 363.219 59.6562C362.115 60.5104 361.562 61.6042 361.562 62.9375H353.969C353.969 61.0833 354.583 59.3542 355.812 57.75C357.042 56.125 358.708 54.8542 360.812 53.9375C362.938 53.0208 365.302 52.5625 367.906 52.5625C371.865 52.5625 375.021 53.5625 377.375 55.5625C379.729 57.5417 380.938 60.3333 381 63.9375V79.1875C381 82.2292 381.427 84.6562 382.281 86.4688V87H374.531ZM366.188 81.5312C367.688 81.5312 369.094 81.1667 370.406 80.4375C371.74 79.7083 372.74 78.7292 373.406 77.5V71.125H369.312C366.5 71.125 364.385 71.6146 362.969 72.5938C361.552 73.5729 360.844 74.9583 360.844 76.75C360.844 78.2083 361.323 79.375 362.281 80.25C363.26 81.1042 364.562 81.5312 366.188 81.5312ZM398.469 44.9688V53.1875H404.438V58.8125H398.469V77.6875C398.469 78.9792 398.719 79.9167 399.219 80.5C399.74 81.0625 400.656 81.3438 401.969 81.3438C402.844 81.3438 403.729 81.2396 404.625 81.0312V86.9062C402.896 87.3854 401.229 87.625 399.625 87.625C393.792 87.625 390.875 84.4062 390.875 77.9688V58.8125H385.312V53.1875H390.875V44.9688H398.469ZM418.344 87H410.75V53.1875H418.344V87ZM410.281 44.4062C410.281 43.2396 410.646 42.2708 411.375 41.5C412.125 40.7292 413.188 40.3438 414.562 40.3438C415.938 40.3438 417 40.7292 417.75 41.5C418.5 42.2708 418.875 43.2396 418.875 44.4062C418.875 45.5521 418.5 46.5104 417.75 47.2812C417 48.0312 415.938 48.4062 414.562 48.4062C413.188 48.4062 412.125 48.0312 411.375 47.2812C410.646 46.5104 410.281 45.5521 410.281 44.4062ZM438.562 77.375L445.719 53.1875H453.562L441.844 87H435.25L423.438 53.1875H431.312L438.562 77.375ZM472.781 87.625C467.969 87.625 464.062 86.1146 461.062 83.0938C458.083 80.0521 456.594 76.0104 456.594 70.9688V70.0312C456.594 66.6562 457.24 63.6458 458.531 61C459.844 58.3333 461.677 56.2604 464.031 54.7812C466.385 53.3021 469.01 52.5625 471.906 52.5625C476.51 52.5625 480.062 54.0312 482.562 56.9688C485.083 59.9062 486.344 64.0625 486.344 69.4375V72.5H464.25C464.479 75.2917 465.406 77.5 467.031 79.125C468.677 80.75 470.74 81.5625 473.219 81.5625C476.698 81.5625 479.531 80.1562 481.719 77.3438L485.812 81.25C484.458 83.2708 482.646 84.8438 480.375 85.9688C478.125 87.0729 475.594 87.625 472.781 87.625ZM471.875 58.6562C469.792 58.6562 468.104 59.3854 466.812 60.8438C465.542 62.3021 464.729 64.3333 464.375 66.9375H478.844V66.375C478.677 63.8333 478 61.9167 476.812 60.625C475.625 59.3125 473.979 58.6562 471.875 58.6562Z" fill="black"/>
<path d="M545.625 44.7812H530.031V87H526.188V44.7812H510.625V41.5H545.625V44.7812ZM565.375 56.375C564.583 56.2292 563.74 56.1562 562.844 56.1562C560.51 56.1562 558.531 56.8125 556.906 58.125C555.302 59.4167 554.156 61.3021 553.469 63.7812V87H549.75V53.1875H553.406L553.469 58.5625C555.448 54.5625 558.625 52.5625 563 52.5625C564.042 52.5625 564.865 52.6979 565.469 52.9688L565.375 56.375ZM591.406 87C591.031 85.9375 590.792 84.3646 590.688 82.2812C589.375 83.9896 587.698 85.3125 585.656 86.25C583.635 87.1667 581.49 87.625 579.219 87.625C575.969 87.625 573.333 86.7188 571.312 84.9062C569.312 83.0938 568.312 80.8021 568.312 78.0312C568.312 74.7396 569.677 72.1354 572.406 70.2188C575.156 68.3021 578.979 67.3438 583.875 67.3438H590.656V63.5C590.656 61.0833 589.906 59.1875 588.406 57.8125C586.927 56.4167 584.76 55.7188 581.906 55.7188C579.302 55.7188 577.146 56.3854 575.438 57.7188C573.729 59.0521 572.875 60.6562 572.875 62.5312L569.125 62.5C569.125 59.8125 570.375 57.4896 572.875 55.5312C575.375 53.5521 578.448 52.5625 582.094 52.5625C585.865 52.5625 588.833 53.5104 591 55.4062C593.188 57.2812 594.312 59.9062 594.375 63.2812V79.2812C594.375 82.5521 594.719 85 595.406 86.625V87H591.406ZM579.656 84.3125C582.156 84.3125 584.385 83.7083 586.344 82.5C588.323 81.2917 589.76 79.6771 590.656 77.6562V70.2188H583.969C580.24 70.2604 577.323 70.9479 575.219 72.2812C573.115 73.5938 572.062 75.4062 572.062 77.7188C572.062 79.6146 572.76 81.1875 574.156 82.4375C575.573 83.6875 577.406 84.3125 579.656 84.3125ZM602.875 69.7812C602.875 64.5312 604.042 60.3542 606.375 57.25C608.729 54.125 611.917 52.5625 615.938 52.5625C620.5 52.5625 623.979 54.3646 626.375 57.9688V39H630.094V87H626.594L626.438 82.5C624.042 85.9167 620.521 87.625 615.875 87.625C611.979 87.625 608.833 86.0625 606.438 82.9375C604.062 79.7917 602.875 75.5521 602.875 70.2188V69.7812ZM606.656 70.4375C606.656 74.75 607.521 78.1562 609.25 80.6562C610.979 83.1354 613.417 84.375 616.562 84.375C621.167 84.375 624.438 82.3438 626.375 78.2812V62.4062C624.438 58.0104 621.188 55.8125 616.625 55.8125C613.479 55.8125 611.031 57.0521 609.281 59.5312C607.531 61.9896 606.656 65.625 606.656 70.4375ZM644.125 87H640.375V53.1875H644.125V87ZM639.719 43.4062C639.719 42.6979 639.948 42.1042 640.406 41.625C640.865 41.125 641.49 40.875 642.281 40.875C643.073 40.875 643.698 41.125 644.156 41.625C644.635 42.1042 644.875 42.6979 644.875 43.4062C644.875 44.1146 644.635 44.7083 644.156 45.1875C643.698 45.6667 643.073 45.9062 642.281 45.9062C641.49 45.9062 640.865 45.6667 640.406 45.1875C639.948 44.7083 639.719 44.1146 639.719 43.4062ZM657.875 53.1875L658 58.9688C659.271 56.8854 660.854 55.3021 662.75 54.2188C664.646 53.1146 666.74 52.5625 669.031 52.5625C672.656 52.5625 675.354 53.5833 677.125 55.625C678.896 57.6667 679.792 60.7292 679.812 64.8125V87H676.094V64.7812C676.073 61.7604 675.427 59.5104 674.156 58.0312C672.906 56.5521 670.896 55.8125 668.125 55.8125C665.812 55.8125 663.76 56.5417 661.969 58C660.198 59.4375 658.885 61.3854 658.031 63.8438V87H654.312V53.1875H657.875ZM688 69.7812C688 64.4896 689.167 60.3021 691.5 57.2188C693.854 54.1146 697.042 52.5625 701.062 52.5625C705.667 52.5625 709.167 54.3958 711.562 58.0625L711.75 53.1875H715.25V86.3125C715.25 90.6667 714.031 94.1146 711.594 96.6562C709.156 99.1979 705.854 100.469 701.688 100.469C699.333 100.469 697.083 99.9375 694.938 98.875C692.812 97.8333 691.135 96.4375 689.906 94.6875L692 92.4375C694.646 95.6875 697.792 97.3125 701.438 97.3125C704.562 97.3125 707 96.3854 708.75 94.5312C710.5 92.6979 711.406 90.1458 711.469 86.875V82.625C709.073 85.9583 705.583 87.625 701 87.625C697.083 87.625 693.938 86.0625 691.562 82.9375C689.188 79.8125 688 75.5938 688 70.2812V69.7812ZM691.781 70.4375C691.781 74.75 692.646 78.1562 694.375 80.6562C696.104 83.1354 698.542 84.375 701.688 84.375C706.292 84.375 709.552 82.3125 711.469 78.1875V62.4688C710.594 60.3021 709.333 58.6562 707.688 57.5312C706.042 56.3854 704.062 55.8125 701.75 55.8125C698.604 55.8125 696.156 57.0521 694.406 59.5312C692.656 61.9896 691.781 65.625 691.781 70.4375Z" fill="black"/>
<path d="M750.625 83.75H773.094V87H746.75V41.5H750.625V83.75ZM802.75 44.7812H787.156V87H783.312V44.7812H767.75V41.5H802.75V44.7812ZM810.125 87V41.5H822.844C826.573 41.5 829.917 42.3542 832.875 44.0625C835.833 45.75 838.135 48.1771 839.781 51.3438C841.448 54.5104 842.281 58.1146 842.281 62.1562V66.3438C842.281 70.4062 841.458 74.0104 839.812 77.1562C838.167 80.3021 835.844 82.7292 832.844 84.4375C829.865 86.1458 826.438 87 822.562 87H810.125ZM813.969 44.7812V83.75H822.594C827.385 83.75 831.229 82.1667 834.125 79C837.021 75.8125 838.469 71.5104 838.469 66.0938V62.0938C838.469 56.8646 837.042 52.6771 834.188 49.5312C831.333 46.3854 827.573 44.8021 822.906 44.7812H813.969Z" fill="black"/>
</svg>
